<svg width="144" height="144" viewBox="0 0 144 144" fill="none" xmlns="http://www.w3.org/2000/svg">
<rect width="144" height="144" rx="72" fill="white"/>
<g clip-path="url(#clip0_11_2)">
<mask id="path-2-inside-1_11_2" fill="white">
<path d="M84.9751 68.9197L108.723 62.5408C109.979 62.1771 111.294 62.0682 112.593 62.2204C113.891 62.3726 115.147 62.7829 116.285 63.4273C117.424 64.0717 118.422 64.9373 119.223 65.9733C120.024 67.0094 120.611 68.1952 120.949 69.4613C121.288 70.7275 121.371 72.0485 121.194 73.3473C121.017 74.646 120.583 75.8963 119.919 77.0251C119.254 78.1539 118.372 79.1384 117.323 79.9212C116.274 80.7039 115.08 81.2691 113.811 81.5838L42.5737 100.725L20.6946 75.9788L34.9382 72.1535L46.984 79.1239L61.2276 75.2986L42.8245 44.5183L57.073 40.688L84.9751 68.9197Z"/>
</mask>
<path d="M84.9751 68.9197L57.2365 96.3344C67.0944 106.309 81.5486 110.223 95.0923 106.585L84.9751 68.9197ZM108.723 62.5408L118.84 100.206C119.084 100.14 119.327 100.072 119.57 100.002L108.723 62.5408ZM113.811 81.5838L104.427 43.7297C104.181 43.7906 103.936 43.854 103.691 43.9197L113.811 81.5838ZM42.5737 100.725L13.3559 126.558C23.1607 137.648 38.3986 142.231 52.6941 138.389L42.5737 100.725ZM20.6946 75.9788L10.5789 38.3135C-2.46131 41.8157 -12.7623 51.8138 -16.6521 64.7437C-20.5418 77.6737 -17.4668 91.6957 -8.52328 101.811L20.6946 75.9788ZM34.9382 72.1535L54.4713 38.3976C45.5005 33.2066 34.8323 31.7999 24.8225 34.4882L34.9382 72.1535ZM46.984 79.1239L27.4509 112.88C36.4217 118.071 47.0899 119.477 57.0996 116.789L46.984 79.1239ZM61.2276 75.2986L71.3432 112.964C83.1502 109.793 92.7871 101.269 97.376 89.9374C101.965 78.6059 100.975 65.7783 94.701 55.2853L61.2276 75.2986ZM42.8245 44.5183L32.7 6.85537C20.8953 10.0287 11.2613 18.5532 6.67439 29.8837C2.08748 41.2143 3.07832 54.0399 9.35109 64.5315L42.8245 44.5183ZM57.073 40.688L84.8116 13.2732C74.9518 3.2969 60.4941 -0.616245 46.9485 3.02509L57.073 40.688ZM95.0923 106.585L118.84 100.206L98.6053 24.8759L74.8578 31.2548L95.0923 106.585ZM119.57 100.002C115.834 101.084 111.918 101.408 108.052 100.955L117.134 23.4856C110.671 22.7281 104.124 23.2704 97.8752 25.0797L119.57 100.002ZM108.052 100.955C104.187 100.502 100.455 99.2811 97.0744 97.3677L135.496 29.487C129.838 26.2847 123.596 24.2432 117.134 23.4856L108.052 100.955ZM97.0744 97.3677C93.6941 95.4544 90.7353 92.8884 88.3671 89.8248L150.08 42.1218C146.11 36.9861 141.153 32.6891 135.496 29.487L97.0744 97.3677ZM88.3671 89.8248C85.9991 86.7614 84.2685 83.261 83.2714 79.5298L158.627 59.3928C156.953 53.1293 154.049 47.2574 150.08 42.1218L88.3671 89.8248ZM83.2714 79.5298C82.2744 75.7987 82.0297 71.9075 82.5509 68.0823L159.837 78.6123C160.712 72.1896 160.301 65.6562 158.627 59.3928L83.2714 79.5298ZM82.5509 68.0823C83.072 64.2569 84.3493 60.5698 86.312 57.2366L153.526 96.8135C156.818 91.2228 158.962 85.0351 159.837 78.6123L82.5509 68.0823ZM86.312 57.2366C88.2747 53.9033 90.8849 50.9887 93.9948 48.6674L140.651 111.175C145.858 107.288 150.234 102.404 153.526 96.8135L86.312 57.2366ZM93.9948 48.6674C97.1049 46.346 100.651 44.6658 104.427 43.7297L123.196 119.438C129.51 117.872 135.444 115.062 140.651 111.175L93.9948 48.6674ZM103.691 43.9197L32.4534 63.0613L52.6941 138.389L123.932 119.248L103.691 43.9197ZM71.7916 74.8928L49.9124 50.1464L-8.52328 101.811L13.3559 126.558L71.7916 74.8928ZM30.8102 113.644L45.0538 109.819L24.8225 34.4882L10.5789 38.3135L30.8102 113.644ZM15.4051 105.909L27.4509 112.88L66.5171 45.368L54.4713 38.3976L15.4051 105.909ZM57.0996 116.789L71.3432 112.964L51.1119 37.6333L36.8684 41.4586L57.0996 116.789ZM94.701 55.2853L76.2979 24.505L9.35109 64.5315L27.7542 95.3118L94.701 55.2853ZM52.949 82.1812L67.1975 78.3509L46.9485 3.02509L32.7 6.85537L52.949 82.1812ZM29.3344 68.1028L57.2365 96.3344L112.714 41.5049L84.8116 13.2732L29.3344 68.1028Z" fill="#4B0097" mask="url(#path-2-inside-1_11_2)"/>
</g>
<defs>
<clipPath id="clip0_11_2">
<rect width="118" height="84" fill="white" transform="translate(13 29)"/>
</clipPath>
</defs>
</svg>
